# xmcd
# 
# Track frame offsets:
#     183
#     16060
#     34318
#     49613
#     69778
#     85375
#     117780
#     141750
#     161763
#     185118
#     214945
#     248280
#     269008
#     287598
#     314690
# 
# Disc length: 4451
# 
# Revision: 1
# Processed by: cddbd v1.5.2PL0 Copyright (c) Steve Scherf et al.
# Submitted via: fre:ac v1.0.27
# 
DISCID=d711610f
DTITLE=The Eagles - Hell Freezes Over
DYEAR=1994
DGENRE=Country
TTITLE0=Get Over It
TTITLE1=Love Will Keep Us Alive
TTITLE2=The Girl From Yesterday
TTITLE3=Learn To Be Still
TTITLE4=Tequila Sunrise
TTITLE5=Hotel California
TTITLE6=Wasted Time
TTITLE7=Pretty Maids All In A Row
TTITLE8=I Can't Tell You Why
TTITLE9=New York Minute
TTITLE10=The Last Resort
TTITLE11=Take It Easy
TTITLE12=In The City
TTITLE13=Life In The Fast Lane
TTITLE14=Desperado
EXTD=EAN 7 2064-24725-2 1\nGED 24725 | LC 7266
EXTT0=
EXTT1=
EXTT2=
EXTT3=
EXTT4=
EXTT5=
EXTT6=
EXTT7=
EXTT8=
EXTT9=
EXTT10=
EXTT11=
EXTT12=
EXTT13=
EXTT14=
PLAYORDER=
